<svg height="511pt" viewBox="0 -35 511.99797 511" width="511pt" xmlns="http://www.w3.org/2000/svg"><path d="m302.910156 139.746094c16.246094 0 29.464844-13.222656 29.464844-29.46875s-13.21875-29.46875-29.464844-29.46875-29.46875 13.222656-29.46875 29.46875 13.21875 29.46875 29.46875 29.46875zm0-38.628906c5.050782 0 9.160156 4.109374 9.160156 9.160156 0 5.050781-4.109374 9.160156-9.160156 9.160156-5.050781 0-9.164062-4.109375-9.164062-9.160156 0-5.050782 4.109375-9.160156 9.164062-9.160156zm0 0"/><path d="m488.855469 196.652344h-26.894531v-186c0-5.605469-4.546876-10.152344-10.152344-10.152344h-327.945313c-5.609375 0-10.152343 4.546875-10.152343 10.152344 0 5.609375 4.542968 10.152344 10.152343 10.152344h317.792969v24.886718h-421.351562v-24.886718h25.132812c5.609375 0 10.152344-4.542969 10.152344-10.152344 0-5.605469-4.542969-10.152344-10.152344-10.152344h-35.285156c-5.605469 0-10.152344 4.546875-10.152344 10.152344v420.902344c0 5.605468 4.546875 10.152343 10.152344 10.152343h186.65625c5.605468 0 10.152344-4.546875 10.152344-10.152343v-177.328126h159.433593v168.148438c0 10.839844 10.164063 19.332031 23.144531 19.332031h99.316407c12.761719 0 23.140625-8.261719 23.140625-18.414062v-207.308594c.003906-10.839844-10.160156-19.332031-23.140625-19.332031zm-47.199219-11.898438-72.503906-62.835937c-4.023438-3.488281-10.0625-3.269531-13.828125.496093l-54.671875 54.671876-27.542969-27.539063c-3.785156-3.785156-9.855469-3.984375-13.878906-.453125l-52.269531 45.894531v-128.992187h234.695312zm-292.398438 236.648438h-16.757812v-355.40625h16.757812zm-128.953124-355.40625h17.09375v355.40625h-17.09375zm37.398437 0h17.09375v355.40625h-17.09375zm37.398437 0h16.757813v355.40625h-16.757813zm91.554688 355.40625h-17.089844v-355.40625h17.089844zm20.304688-187.484375v-11.910157l58.519531-51.375 27.992187 27.992188c1.902344 1.902344 4.488282 2.972656 7.179688 2.972656s5.273437-1.070312 7.179687-2.972656l55.167969-55.167969 61.382812 53.195313h-34.84375c-12.976562 0-23.144531 8.492187-23.144531 19.332031v17.9375h-159.433593zm284.734374 186.972656c-.648437.257813-1.609374.511719-2.839843.511719h-99.316407c-1.316406 0-2.269531-.292969-2.839843-.554688v-203.335937c.570312-.261719 1.523437-.554688 2.839843-.554688h60.402344c1.242188.230469 2.511719.230469 3.746094 0h35.167969c1.320312 0 2.269531.292969 2.839843.554688zm0 0"/><path d="m469.25 227.757812h-60.179688c-5.609374 0-10.15625 4.546876-10.15625 10.152344v35.445313c0 5.605469 4.546876 10.152343 10.15625 10.152343h60.179688c5.609375 0 10.15625-4.546874 10.15625-10.152343v-35.445313c0-5.605468-4.546875-10.152344-10.15625-10.152344zm-10.152344 35.445313h-39.875v-15.140625h39.875zm0 0"/><path d="m421.230469 293.78125h-12.160157c-5.609374 0-10.15625 4.546875-10.15625 10.152344 0 5.605468 4.546876 10.152344 10.15625 10.152344h12.160157c5.609375 0 10.152343-4.546876 10.152343-10.152344 0-5.605469-4.542968-10.152344-10.152343-10.152344zm0 0"/><path d="m469.25 293.78125h-12.160156c-5.605469 0-10.152344 4.546875-10.152344 10.152344 0 5.605468 4.546875 10.152344 10.152344 10.152344h12.160156c5.609375 0 10.15625-4.546876 10.15625-10.152344 0-5.605469-4.546875-10.152344-10.15625-10.152344zm0 0"/><path d="m421.230469 324.359375h-12.160157c-5.609374 0-10.15625 4.546875-10.15625 10.152344s4.546876 10.152343 10.15625 10.152343h12.160157c5.609375 0 10.152343-4.546874 10.152343-10.152343s-4.542968-10.152344-10.152343-10.152344zm0 0"/><path d="m469.25 324.359375h-12.160156c-5.605469 0-10.152344 4.546875-10.152344 10.152344s4.546875 10.152343 10.152344 10.152343h12.160156c5.609375 0 10.15625-4.546874 10.15625-10.152343s-4.546875-10.152344-10.15625-10.152344zm0 0"/><path d="m421.230469 354.9375h-12.160157c-5.609374 0-10.15625 4.546875-10.15625 10.152344 0 5.605468 4.546876 10.152344 10.15625 10.152344h12.160157c5.609375 0 10.152343-4.546876 10.152343-10.152344 0-5.605469-4.542968-10.152344-10.152343-10.152344zm0 0"/><path d="m469.25 354.9375h-12.160156c-5.605469 0-10.152344 4.546875-10.152344 10.152344 0 5.605468 4.546875 10.152344 10.152344 10.152344h12.160156c5.609375 0 10.15625-4.546876 10.15625-10.152344 0-5.605469-4.546875-10.152344-10.15625-10.152344zm0 0"/><path d="m421.230469 385.515625h-12.160157c-5.609374 0-10.15625 4.546875-10.15625 10.152344s4.546876 10.152343 10.15625 10.152343h12.160157c5.609375 0 10.152343-4.546874 10.152343-10.152343s-4.542968-10.152344-10.152343-10.152344zm0 0"/><path d="m469.25 385.515625h-12.160156c-5.605469 0-10.152344 4.546875-10.152344 10.152344s4.546875 10.152343 10.152344 10.152343h12.160156c5.609375 0 10.15625-4.546874 10.15625-10.152343s-4.546875-10.152344-10.15625-10.152344zm0 0"/><path d="m75.441406 14.234375c1.472656 4.167969 5.390625 6.769531 9.570313 6.769531 1.125 0 2.265625-.1875 3.386719-.582031 5.285156-1.867187 8.054687-7.667969 6.1875-12.957031l-.070313-.195313c-1.867187-5.285156-7.667969-8.054687-12.957031-6.1875-5.285156 1.867188-8.054688 7.667969-6.1875 12.957031zm0 0"/><path d="m417.8125 134.339844c-5.289062 1.867187-8.058594 7.667968-6.191406 12.957031l.070312.195313c1.472656 4.167968 5.390625 6.769531 9.574219 6.769531 1.121094 0 2.261719-.1875 3.382813-.582031 5.285156-1.871094 8.058593-7.667969 6.1875-12.957032l-.070313-.195312c-1.867187-5.285156-7.664063-8.058594-12.953125-6.1875zm0 0"/><path d="m395.957031 97.289062h14.214844v7.445313c0 5.609375 4.542969 10.152344 10.152344 10.152344 5.605469 0 10.152343-4.542969 10.152343-10.152344v-17.597656c0-5.605469-4.546874-10.152344-10.152343-10.152344h-24.367188c-5.609375 0-10.152343 4.546875-10.152343 10.152344 0 5.609375 4.542968 10.152343 10.152343 10.152343zm0 0"/></svg>