<svg id="Layer_3" enable-background="new 0 0 64 64" height="512" viewBox="0 0 64 64" width="512" xmlns="http://www.w3.org/2000/svg"><g><path d="m60 11h-27.59c-1.726-5.775-7.081-10-13.41-10s-11.684 4.225-13.41 10h-1.59c-1.654 0-3 1.346-3 3v39c0 1.654 1.346 3 3 3h3.069c.495 3.94 3.859 7 7.931 7s7.436-3.06 7.931-7h18.139c.495 3.94 3.859 7 7.931 7s7.436-3.06 7.931-7h3.068c1.654 0 3-1.346 3-3v-39c0-1.654-1.346-3-3-3zm0 2c.552 0 1 .449 1 1v29h-6v-2h1c1.654 0 3-1.346 3-3v-4c0-1.654-1.346-3-3-3h-1v-2h1c1.654 0 3-1.346 3-3v-4c0-1.654-1.346-3-3-3h-1v-1c0-.552-.447-1-1-1h-21.16c.094-.655.16-1.319.16-2s-.065-1.345-.16-2zm-49 13.473c2.27 1.588 5.026 2.527 8 2.527 5.096 0 9.551-2.745 12-6.826v20.826h-20zm22-7.473h20v24h-20zm22 2h1c.552 0 1 .449 1 1v4c0 .551-.448 1-1 1h-1zm0 12h1c.552 0 1 .448 1 1v4c0 .552-.448 1-1 1h-1zm-36-30c6.617 0 12 5.383 12 12s-5.383 12-12 12-12-5.383-12-12 5.383-12 12-12zm-15 10h1.16c-.095.655-.16 1.319-.16 2 0 3.804 1.53 7.254 4 9.779v18.221h-6v-29c0-.551.448-1 1-1zm11 48c-3.309 0-6-2.691-6-6s2.691-6 6-6 6 2.691 6 6-2.691 6-6 6zm34 0c-3.309 0-6-2.691-6-6s2.691-6 6-6 6 2.691 6 6-2.691 6-6 6zm11-7h-3.069c-.495-3.94-3.859-7-7.931-7s-7.436 3.06-7.931 7h-18.138c-.495-3.94-3.859-7-7.931-7s-7.436 3.06-7.931 7h-3.069c-.552 0-1-.448-1-1v-8h58v8c0 .552-.448 1-1 1z"/><path d="m49 51c-2.206 0-4 1.794-4 4s1.794 4 4 4 4-1.794 4-4-1.794-4-4-4zm0 6c-1.103 0-2-.897-2-2s.897-2 2-2 2 .897 2 2-.897 2-2 2z"/><path d="m15 51c-2.206 0-4 1.794-4 4s1.794 4 4 4 4-1.794 4-4-1.794-4-4-4zm0 6c-1.103 0-2-.897-2-2s.897-2 2-2 2 .897 2 2-.897 2-2 2z"/><path d="m28 31h-10c-.553 0-1 .448-1 1v8c0 .553.447 1 1 1h10c.553 0 1-.447 1-1v-8c0-.552-.447-1-1-1zm-1 4h-3v-2h3zm-5-2v2h-3v-2zm-3 4h3v2h-3zm5 2v-2h3v2z"/><path d="m50 21h-14c-.553 0-1 .448-1 1v6c0 .552.447 1 1 1h14c.553 0 1-.448 1-1v-6c0-.552-.447-1-1-1zm-1 6h-12v-4h12z"/><path d="m14 17h2.719l-1.688 6.757c-.116.464.113.946.547 1.149.135.064.279.094.422.094.312 0 .615-.146.809-.412l8-11c.222-.304.253-.707.082-1.042-.17-.335-.515-.546-.891-.546h-2.847l.837-5.858c.065-.458-.192-.901-.623-1.072-.426-.168-.921-.022-1.187.357l-7 10c-.214.305-.24.704-.067 1.035.172.33.514.538.887.538zm5.418-6.996-.408 2.854c-.041.287.045.578.234.797.191.219.466.345.756.345h2.036l-3.817 5.25.751-3.007c.075-.299.008-.615-.182-.858s-.48-.385-.788-.385h-2.079z"/></g></svg>