<svg height="496pt" viewBox="0 0 496 496" width="496pt" xmlns="http://www.w3.org/2000/svg"><path d="m160 336c-35.289062 0-64 28.710938-64 64s28.710938 64 64 64 64-28.710938 64-64-28.710938-64-64-64zm0 112c-26.472656 0-48-21.527344-48-48s21.527344-48 48-48 48 21.527344 48 48-21.527344 48-48 48zm0 0"/><path d="m160 320c26.472656 0 48-21.527344 48-48s-21.527344-48-48-48-48 21.527344-48 48 21.527344 48 48 48zm0-80c17.648438 0 32 14.351562 32 32s-14.351562 32-32 32-32-14.351562-32-32 14.351562-32 32-32zm0 0"/><path d="m160 368c-17.648438 0-32 14.351562-32 32s14.351562 32 32 32 32-14.351562 32-32-14.351562-32-32-32zm0 48c-8.824219 0-16-7.175781-16-16s7.175781-16 16-16 16 7.175781 16 16-7.175781 16-16 16zm0 0"/><path d="m424 192h-352c-4.414062 0-8 3.585938-8 8v288c0 4.414062 3.585938 8 8 8h352c4.414062 0 8-3.585938 8-8v-288c0-4.414062-3.585938-8-8-8zm-344 16h160v272h-160zm336 272h-160v-272h160zm0 0"/><path d="m336 336c-35.289062 0-64 28.710938-64 64s28.710938 64 64 64 64-28.710938 64-64-28.710938-64-64-64zm0 112c-26.472656 0-48-21.527344-48-48s21.527344-48 48-48 48 21.527344 48 48-21.527344 48-48 48zm0 0"/><path d="m336 320c26.472656 0 48-21.527344 48-48s-21.527344-48-48-48-48 21.527344-48 48 21.527344 48 48 48zm0-80c17.648438 0 32 14.351562 32 32s-14.351562 32-32 32-32-14.351562-32-32 14.351562-32 32-32zm0 0"/><path d="m336 368c-17.648438 0-32 14.351562-32 32s14.351562 32 32 32 32-14.351562 32-32-14.351562-32-32-32zm0 48c-8.824219 0-16-7.175781-16-16s7.175781-16 16-16 16 7.175781 16 16-7.175781 16-16 16zm0 0"/><path d="m488 0h-480c-4.414062 0-8 3.585938-8 8v272c0 4.414062 3.585938 8 8 8h40v-16h-32v-64h32v-16h-32v-176h464v176h-32v16h32v64h-32v16h40c4.414062 0 8-3.585938 8-8v-272c0-4.414062-3.585938-8-8-8zm0 0"/><path d="m256 112h-16c-35.289062 0-64 28.710938-64 64h16c0-26.472656 21.527344-48 48-48h16c26.472656 0 48 21.527344 48 48h16c0-35.289062-28.710938-64-64-64zm0 0"/><path d="m352 176c0-52.9375-43.0625-96-96-96h-16c-52.9375 0-96 43.0625-96 96h16c0-44.113281 35.886719-80 80-80h16c44.113281 0 80 35.886719 80 80zm0 0"/><path d="m384 176c0-70.574219-57.425781-128-128-128h-16c-70.574219 0-128 57.425781-128 128h16c0-61.761719 50.238281-112 112-112h16c61.761719 0 112 50.238281 112 112zm0 0"/></svg>