<?xml version="1.0" encoding="iso-8859-1"?>
<!-- Generator: Adobe Illustrator 22.1.0, SVG Export Plug-In . SVG Version: 6.00 Build 0)  -->
<svg xmlns="http://www.w3.org/2000/svg" xmlns:xlink="http://www.w3.org/1999/xlink" version="1.1" id="Layer_1_1_" x="0px" y="0px" viewBox="0 0 64 64" style="enable-background:new 0 0 64 64;" xml:space="preserve" width="512" height="512">
<g>
	<path d="M31,46.113l-5.139,8.223C25.298,55.236,25,56.273,25,57.337C25,60.46,27.54,63,30.663,63h0.674   C34.46,63,37,60.46,37,57.337c0-1.063-0.298-2.101-0.861-3.001L31,46.113z M31.337,61h-0.674C28.644,61,27,59.356,27,57.337   c0-0.688,0.192-1.358,0.557-1.94L31,49.887l3.443,5.51C34.808,55.979,35,56.649,35,57.337C35,59.356,33.356,61,31.337,61z"/>
	<path d="M61,19h-2v-1c0-1.654-1.346-3-3-3s-3,1.346-3,3v1h-2c-1.103,0-2,0.897-2,2v2c0,1.103,0.897,2,2,2h2v4.184   c-0.847,0.302-1.514,0.969-1.816,1.816H43V6c0-2.757-2.243-5-5-5H24c-2.757,0-5,2.243-5,5v30c0,2.757,2.243,5,5,5h5.72l-3.2,4H11   V33h6v-2h-6.184C10.402,29.839,9.302,29,8,29H4c-1.654,0-3,1.346-3,3v14c0,1.654,1.346,3,3,3h4c1.302,0,2.402-0.839,2.816-2H27.48   L31,42.601L34.52,47h16.665c0.414,1.161,1.514,2,2.816,2h4c1.654,0,3-1.346,3-3V32c0-1.302-0.839-2.402-2-2.816V25h2   c1.103,0,2-0.897,2-2v-2C63,19.897,62.103,19,61,19z M3,46V32c0-0.552,0.448-1,1-1h1v16H4C3.448,47,3,46.552,3,46z M9,46   c0,0.552-0.448,1-1,1H7V31h1c0.552,0,1,0.448,1,1V46z M55,18c0-0.552,0.448-1,1-1s1,0.448,1,1v1h-2V18z M24,3h14   c1.654,0,3,1.346,3,3v3H21V6C21,4.346,22.346,3,24,3z M32.28,41H38c2.757,0,5-2.243,5-5v-1h-2v1c0,1.654-1.346,3-3,3H24   c-1.654,0-3-1.346-3-3v-3h18v-2H21V11h20v22h10v12H35.48L32.28,41z M58,47h-4c-0.552,0-1-0.448-1-1V35h4v-2h-4v-1   c0-0.552,0.448-1,1-1h4c0.552,0,1,0.448,1,1v11h-4v2h4v1C59,46.552,58.552,47,58,47z M57,29h-2v-4h2V29z M51,23v-2h10l0.002,2H51z"/>
	<rect x="29" y="5" width="4" height="2"/>
	<rect x="29" y="35" width="4" height="2"/>
	<path d="M23,29h16V13H23V29z M25,15h12v12H25V15z"/>
	<rect x="35" y="5" width="2" height="2"/>
	<rect x="25" y="5" width="2" height="2"/>
	<path d="M31,17c-2.206,0-4,1.794-4,4s1.794,4,4,4s4-1.794,4-4S33.206,17,31,17z M32,22.722V21h-2v1.722   c-0.595-0.347-1-0.985-1-1.722c0-1.103,0.897-2,2-2s2,0.897,2,2C33,21.737,32.595,22.375,32,22.722z"/>
</g>
</svg>
