<svg width="90" height="90" viewBox="0 0 90 90" fill="none" xmlns="http://www.w3.org/2000/svg">
<path d="M84.375 66.0938C84.3767 69.5356 83.5366 72.9256 81.928 75.9683C80.3193 79.0111 77.991 81.6142 75.1458 83.5509L76.7292 85.8755C79.9538 83.6815 82.5927 80.7318 84.4156 77.2837C86.2386 73.8357 87.1902 69.994 87.1875 66.0938H84.375Z" fill="black"/>
<path d="M42.1875 66.0938H39.375C39.3814 70.2896 40.4886 74.4103 42.5862 78.0442C44.6837 81.6781 47.6981 84.698 51.3281 86.8022L52.7344 84.3666C49.5313 82.5099 46.8715 79.8452 45.0207 76.6386C43.1699 73.4321 42.193 69.7961 42.1875 66.0938V66.0938Z" fill="black"/>
<path d="M61.2984 20.5172C60.9063 20.9094 60.6392 21.409 60.531 21.9529C60.4229 22.4969 60.4784 23.0607 60.6906 23.573C60.9029 24.0854 61.2623 24.5233 61.7234 24.8314C62.1845 25.1395 62.7267 25.304 63.2812 25.304C63.8358 25.304 64.378 25.1395 64.8391 24.8314C65.3002 24.5233 65.6596 24.0854 65.8718 23.573C66.0841 23.0607 66.1396 22.4969 66.0314 21.9529C65.9232 21.409 65.6562 20.9094 65.2641 20.5172C65.0039 20.2565 64.6948 20.0496 64.3546 19.9085C64.0143 19.7673 63.6496 19.6947 63.2812 19.6947C62.9129 19.6947 62.5482 19.7673 62.2079 19.9085C61.8677 20.0496 61.5586 20.2565 61.2984 20.5172V20.5172Z" fill="black"/>
<path d="M69.248 16.5333C67.6643 14.9531 65.5184 14.0656 63.2812 14.0656C61.044 14.0656 58.8982 14.9531 57.3145 16.5333L59.303 18.5217C60.3592 17.4688 61.7898 16.8775 63.2812 16.8775C64.7727 16.8775 66.2033 17.4688 67.2595 18.5217L69.248 16.5333Z" fill="black"/>
<path d="M73.2248 12.5564C70.5876 9.91923 67.0108 8.43768 63.2812 8.43768C59.5517 8.43768 55.9749 9.91923 53.3376 12.5564L55.3261 14.5448C56.3707 13.5001 57.611 12.6714 58.9759 12.106C60.3409 11.5406 61.8038 11.2496 63.2812 11.2496C64.7587 11.2496 66.2216 11.5406 67.5866 12.106C68.9515 12.6714 70.1917 13.5001 71.2364 14.5448L73.2248 12.5564Z" fill="black"/>
<path d="M75.2133 10.568L77.2031 8.57812C73.5084 4.89038 68.5015 2.81921 63.2813 2.81921C58.0611 2.81921 53.0541 4.89038 49.3594 8.57812L51.3478 10.5666C54.5151 7.40635 58.8066 5.63167 63.2808 5.63194C67.755 5.6322 72.0464 7.40738 75.2133 10.568V10.568Z" fill="black"/>
<path d="M73.9265 51.2578C73.2313 50.74 72.6687 50.0647 72.2849 49.2873C71.9011 48.51 71.7071 47.6528 71.7187 46.7859V36.5625C71.7187 36.1895 71.5706 35.8319 71.3068 35.5681C71.0431 35.3044 70.6854 35.1562 70.3125 35.1562C70.3125 33.2914 69.5717 31.503 68.2531 30.1844C66.9344 28.8658 65.146 28.125 63.2812 28.125C61.4164 28.125 59.628 28.8658 58.3094 30.1844C56.9908 31.503 56.25 33.2914 56.25 35.1562C55.877 35.1562 55.5193 35.3044 55.2556 35.5681C54.9919 35.8319 54.8437 36.1895 54.8437 36.5625V46.7859C54.8508 47.6555 54.6533 48.5145 54.2674 49.2937C53.8814 50.0729 53.3178 50.7505 52.6218 51.2719C49.4779 53.5292 47.1315 56.7262 45.9205 60.4023C44.7096 64.0784 44.6966 68.044 45.8835 71.7279C47.0704 75.4119 49.3959 78.6241 52.5251 80.9019C55.6543 83.1798 59.4256 84.4057 63.2961 84.4031C67.1665 84.4006 70.9362 83.1697 74.0624 80.8877C77.1886 78.6058 79.5098 75.3905 80.6918 71.705C81.8739 68.0195 81.8557 64.0539 80.6399 60.3794C79.4241 56.7048 77.0735 53.511 73.9265 51.2578V51.2578ZM63.2812 30.9375C64.3991 30.9408 65.4702 31.3864 66.2606 32.1768C67.0511 32.9673 67.4966 34.0384 67.5 35.1562H59.0625C59.0658 34.0384 59.5114 32.9673 60.3018 32.1768C61.0922 31.3864 62.1634 30.9408 63.2812 30.9375V30.9375ZM57.6562 37.9687H68.9062V42.1875H57.6562V37.9687ZM67.5 64.6875H70.3125V68.9062H67.5V64.6875ZM64.6875 45V61.875H61.875V45H64.6875ZM61.3828 81.45C58.2209 81.0613 55.2564 79.7053 52.8947 77.5673C50.533 75.4294 48.8896 72.6139 48.1892 69.5062C47.4889 66.3985 47.7658 63.1503 48.9822 60.206C50.1985 57.2617 52.2948 54.7651 54.9843 53.0578C55.7964 52.5504 56.4671 51.8461 56.9342 51.0102C57.4013 50.1744 57.6496 49.2341 57.6562 48.2766V45H59.0625V61.875H54.8437C54.4708 61.875 54.1131 62.0232 53.8494 62.2869C53.5856 62.5506 53.4375 62.9083 53.4375 63.2812V70.3125C53.4375 70.6855 53.5856 71.0431 53.8494 71.3069C54.1131 71.5706 54.4708 71.7187 54.8437 71.7187H60.4687C60.8417 71.7187 61.1994 71.5706 61.4631 71.3069C61.7268 71.0431 61.875 70.6855 61.875 70.3125V64.6875H64.6875V70.3125C64.6875 70.6855 64.8356 71.0431 65.0994 71.3069C65.3631 71.5706 65.7208 71.7187 66.0937 71.7187H71.7187C72.0917 71.7187 72.4494 71.5706 72.7131 71.3069C72.9768 71.0431 73.125 70.6855 73.125 70.3125V63.2812C73.125 62.9083 72.9768 62.5506 72.7131 62.2869C72.4494 62.0232 72.0917 61.875 71.7187 61.875H67.5V45H68.9062V48.2766C68.9095 49.226 69.1522 50.1593 69.6119 50.9902C70.0715 51.821 70.7333 52.5224 71.5359 53.0297C74.5099 54.9046 76.756 57.7372 77.9039 61.0603C79.0517 64.3833 79.0327 67.9983 77.8499 71.3091C76.6671 74.6199 74.3913 77.4286 71.3977 79.2722C68.4041 81.1157 64.8716 81.8839 61.3828 81.45V81.45ZM59.0625 64.6875V68.9062H56.25V64.6875H59.0625Z" fill="black"/>
<path d="M25.3125 23.9062C24.2 23.9062 23.1124 24.2362 22.1874 24.8542C21.2624 25.4723 20.5414 26.3508 20.1157 27.3787C19.6899 28.4065 19.5785 29.5375 19.7956 30.6286C20.0126 31.7198 20.5484 32.7221 21.335 33.5087C22.1217 34.2954 23.124 34.8311 24.2151 35.0482C25.3063 35.2652 26.4373 35.1538 27.4651 34.7281C28.4929 34.3023 29.3714 33.5814 29.9895 32.6563C30.6076 31.7313 30.9375 30.6438 30.9375 29.5313C30.9375 28.0394 30.3449 26.6087 29.29 25.5538C28.2351 24.4989 26.8043 23.9062 25.3125 23.9062ZM25.3125 32.3438C24.7562 32.3438 24.2125 32.1788 23.75 31.8698C23.2874 31.5607 22.927 31.1215 22.7141 30.6075C22.5012 30.0936 22.4455 29.5281 22.554 28.9826C22.6626 28.437 22.9304 27.9358 23.3238 27.5425C23.7171 27.1492 24.2182 26.8813 24.7638 26.7728C25.3094 26.6643 25.8749 26.72 26.3888 26.9328C26.9027 27.1457 27.342 27.5062 27.651 27.9687C27.9601 28.4312 28.125 28.975 28.125 29.5313C28.125 30.2772 27.8287 30.9925 27.3012 31.52C26.7738 32.0474 26.0584 32.3438 25.3125 32.3438Z" fill="black"/>
<path d="M37.9688 9.84375H12.6563C11.5384 9.84709 10.4673 10.2926 9.67685 11.0831C8.88641 11.8735 8.44086 12.9446 8.43752 14.0625V25.0453L3.1219 38.3484C2.91429 38.8474 2.80908 39.383 2.81252 39.9234V54.3797C2.81333 55.9009 3.30669 57.381 4.21877 58.5984L5.1469 59.8359C5.72433 60.6058 6.13718 61.4862 6.35975 62.4225C6.58232 63.3587 6.60986 64.3308 6.44065 65.2781L4.23283 85.6266C4.21175 85.8238 4.23214 86.0233 4.29268 86.2122C4.35323 86.4011 4.45259 86.5752 4.5844 86.7234C4.71587 86.8691 4.87638 86.9857 5.0556 87.0656C5.23482 87.1455 5.42879 87.187 5.62502 87.1875H21.0938C21.2937 87.189 21.4916 87.147 21.6737 87.0645C21.8558 86.9819 22.0178 86.8607 22.1485 86.7094C22.2812 86.5622 22.3802 86.3877 22.4384 86.1982C22.4967 86.0088 22.513 85.8089 22.486 85.6125L19.8703 64.1531C19.8042 63.792 19.8798 63.4193 20.0813 63.1125L20.911 61.875H37.9688C39.0866 61.8717 40.1577 61.4261 40.9482 60.6357C41.7386 59.8452 42.1842 58.7741 42.1875 57.6563V14.0625C42.1842 12.9446 41.7386 11.8735 40.9482 11.0831C40.1577 10.2926 39.0866 9.84709 37.9688 9.84375V9.84375ZM17.2828 51.6234L18.0422 52.3688C18.5644 52.8915 18.9785 53.5121 19.2608 54.1949C19.5431 54.8778 19.6881 55.6095 19.6875 56.3484V56.9391C19.6892 58.05 19.3613 59.1364 18.7453 60.0609L17.7469 61.5516C17.1421 62.4352 16.905 63.5196 17.086 64.575L19.5047 84.375H7.18596L9.22502 65.6719C9.44466 64.3594 9.39589 63.016 9.08168 61.7229C8.76747 60.4298 8.19433 59.2138 7.3969 58.1484L6.46877 56.9109C5.92271 56.1798 5.62683 55.2922 5.62502 54.3797V39.9234C5.62227 39.7406 5.65572 39.559 5.72346 39.3891L8.43752 32.6109V41.6109C8.43777 41.9799 8.51123 42.3451 8.65365 42.6855C8.79607 43.0259 9.00462 43.3346 9.26721 43.5938L10.8844 45.2109C11.3242 45.6585 11.9019 45.9449 12.5244 46.024C13.1469 46.1031 13.7779 45.9702 14.3156 45.6469L18.7031 43.0031C18.923 42.8764 19.1784 42.8256 19.43 42.8588C19.6816 42.892 19.9152 43.0072 20.0946 43.1866C20.274 43.3661 20.3893 43.5997 20.4225 43.8513C20.4556 44.1028 20.4049 44.3583 20.2781 44.5781L17.0719 49.9078C16.9144 50.1774 16.8497 50.4913 16.8878 50.8012C16.9259 51.1112 17.0647 51.4 17.2828 51.6234ZM20.25 50.625C20.1797 50.5547 20.1235 50.4703 20.0531 50.4141L22.6828 46.0266C23.1388 45.2701 23.3284 44.3827 23.2214 43.506C23.1144 42.6292 22.7169 41.8135 22.0923 41.1889C21.4678 40.5644 20.6521 40.1669 19.7753 40.0599C18.8985 39.9528 18.0112 40.1425 17.2547 40.5984L16.875 40.8234V18.2813H33.75V50.625H20.25ZM39.375 57.6563C39.375 58.0292 39.2269 58.3869 38.9631 58.6506C38.6994 58.9143 38.3417 59.0625 37.9688 59.0625H22.2047C22.3943 58.3704 22.4936 57.6567 22.5 56.9391V56.3484C22.4988 55.3551 22.3226 54.3698 21.9797 53.4375H35.1563C35.5292 53.4375 35.8869 53.2893 36.1506 53.0256C36.4144 52.7619 36.5625 52.4042 36.5625 52.0313V16.875C36.5625 16.502 36.4144 16.1444 36.1506 15.8806C35.8869 15.6169 35.5292 15.4688 35.1563 15.4688H15.4688C15.0958 15.4688 14.7381 15.6169 14.4744 15.8806C14.2107 16.1444 14.0625 16.502 14.0625 16.875V42.5109L12.8672 43.2281L11.25 41.6109V14.0625C11.25 13.6895 11.3982 13.3319 11.6619 13.0681C11.9256 12.8044 12.2833 12.6563 12.6563 12.6563H37.9688C38.3417 12.6563 38.6994 12.8044 38.9631 13.0681C39.2269 13.3319 39.375 13.6895 39.375 14.0625V57.6563Z" fill="black"/>
</svg>
