<svg height="512" viewBox="0 0 512 512" width="512" xmlns="http://www.w3.org/2000/svg"><g><circle cx="96" cy="112" r="8"/><circle cx="272" cy="112" r="8"/><circle cx="96" cy="448" r="8"/><path d="m184 104a80 80 0 1 0 80 80 80.091 80.091 0 0 0 -80-80zm0 144a64 64 0 1 1 64-64 64.072 64.072 0 0 1 -64 64z"/><path d="m152 168a8 8 0 0 0 -8 8v16a8 8 0 0 0 16 0v-16a8 8 0 0 0 -8-8z"/><path d="m216 168a8 8 0 0 0 -8 8v16a8 8 0 0 0 16 0v-16a8 8 0 0 0 -8-8z"/><path d="m184 296a80 80 0 1 0 80 80 80.091 80.091 0 0 0 -80-80zm0 144a64 64 0 1 1 64-64 64.072 64.072 0 0 1 -64 64z"/><path d="m152 360a8 8 0 0 0 -8 8v16a8 8 0 0 0 16 0v-16a8 8 0 0 0 -8-8z"/><path d="m216 360a8 8 0 0 0 -8 8v16a8 8 0 0 0 16 0v-16a8 8 0 0 0 -8-8z"/><path d="m208 288a8 8 0 0 0 0-16h-48a8 8 0 0 0 0 16z"/><path d="m436 216h-108v-132a28.031 28.031 0 0 0 -28-28h-84v-16a8 8 0 0 0 -8-8h-16v-8h200a8 8 0 0 0 0-16h-208a8 8 0 0 0 -8 8v16h-16a8 8 0 0 0 -8 8v16h-84a28.031 28.031 0 0 0 -28 28v392a28.031 28.031 0 0 0 28 28h224a28.113 28.113 0 0 0 4-.29 27.8 27.8 0 0 0 4 .29h136a28.031 28.031 0 0 0 28-28v-232c0-9.09 0-28-28-28zm-47.1 16-2.67 8h-36.46l-2.67-8zm-220.9-184h32v8h-32zm-100 440a12.01 12.01 0 0 1 -12-12v-392a12.01 12.01 0 0 1 12-12h232a12.01 12.01 0 0 1 12 12v132h-8v-128a8 8 0 0 0 -8-8h-224a8 8 0 0 0 -8 8v384a8 8 0 0 0 8 8h200.29a27.807 27.807 0 0 0 2.42 8zm204-244v220h-192v-368h208v124.65c-7.82 4.85-16 13.18-16 23.35zm176 232a12.01 12.01 0 0 1 -12 12h-136a12.01 12.01 0 0 1 -12-12v-232c0-4.54 9.21-10.78 12.76-12h29.47l6.18 18.53a8 8 0 0 0 7.59 5.47h48a8 8 0 0 0 7.59-5.47l6.18-18.53h30.23c5.6 0 9.49.93 10.66 2.55 1.24 1.7 1.34 5.77 1.34 9.45z"/><path d="m384 464h-32a8 8 0 0 0 0 16h32a8 8 0 0 0 0-16z"/><circle cx="368" cy="376" r="8"/><path d="m389.336 352.15a32 32 0 0 0 -42.672 0 8 8 0 0 0 10.671 11.922 16 16 0 0 1 21.33 0 8 8 0 0 0 10.671-11.922z"/><path d="m330.665 334.262a8 8 0 1 0 10.67 11.922 40 40 0 0 1 53.33 0 8 8 0 0 0 10.67-11.922 56 56 0 0 0 -74.67 0z"/><path d="m368 288a64 64 0 1 0 64 64 64.072 64.072 0 0 0 -64-64zm0 112a48 48 0 1 1 48-48 48.054 48.054 0 0 1 -48 48z"/></g></svg>