<?xml version="1.0"?>
<svg xmlns="http://www.w3.org/2000/svg" viewBox="0 0 512 512" width="512" height="512"><g id="Watering_Timer" data-name="Watering Timer"><g id="Outline"><circle cx="264" cy="232" r="8"/><circle cx="280" cy="280" r="8"/><circle cx="264" cy="328" r="8"/><circle cx="248" cy="280" r="8"/><circle cx="232" cy="328" r="8"/><circle cx="296" cy="328" r="8"/><circle cx="432" cy="232" r="8"/><circle cx="448" cy="280" r="8"/><circle cx="432" cy="328" r="8"/><circle cx="416" cy="280" r="8"/><circle cx="400" cy="328" r="8"/><circle cx="464" cy="328" r="8"/><path d="M504,496H478.58A48.108,48.108,0,0,0,440,456.812v-27.42c11.8,3.768,23.546,2.97,34.214-2.75,22.3-11.955,36.542-44.692,37.138-46.079a8,8,0,0,0-5.912-11.025c-1.487-.272-36.637-6.518-58.931,5.435A41.6,41.6,0,0,0,432,387.729a41.6,41.6,0,0,0-14.509-12.756c-22.294-11.954-57.447-5.707-58.931-5.435a8,8,0,0,0-5.912,11.025c.6,1.387,14.843,34.124,37.138,46.079,10.616,5.692,22.356,6.537,34.214,2.749v27.158A48.11,48.11,0,0,0,383.939,496H302.58A48.108,48.108,0,0,0,264,456.812v-27.42c11.8,3.768,23.546,2.97,34.214-2.75,22.3-11.955,36.542-44.692,37.138-46.079a8,8,0,0,0-5.912-11.025c-1.487-.272-36.637-6.518-58.931,5.435a41.613,41.613,0,0,0-14.88,13.277,41.618,41.618,0,0,0-14.879-13.277c-22.294-11.954-57.445-5.707-58.931-5.435a8,8,0,0,0-5.911,11.025c.6,1.387,14.842,34.124,37.138,46.079,11.143,5.975,23.2,6.451,34.954,2.5v27.4A48.11,48.11,0,0,0,207.939,496H126.58A48.108,48.108,0,0,0,88,456.812v-27.42c11.8,3.768,23.546,2.97,34.214-2.75,22.295-11.955,36.542-44.692,37.138-46.079a8,8,0,0,0-5.912-11.025c-1.487-.272-36.637-6.518-58.931,5.435a41.613,41.613,0,0,0-14.88,13.277A41.618,41.618,0,0,0,64.75,374.973c-22.294-11.954-57.445-5.707-58.931-5.435A8,8,0,0,0-.092,380.563c.6,1.387,14.842,34.124,37.138,46.079,11.143,5.975,23.2,6.451,34.954,2.5v27.4A48.11,48.11,0,0,0,31.939,496H8a8,8,0,0,0,0,16H504a8,8,0,0,0,0-16ZM491.7,384.005c-12.25,21.809-28.288,39.051-51.09,28.522-.09-1.188-.243-2.587-.484-4.135C445.278,385.3,468.011,382.237,491.7,384.005Zm-68.3,28.523c-22.851,10.544-38.873-6.775-51.09-28.523,23.742-1.775,46.423,1.323,51.574,24.387C423.638,409.94,423.485,411.34,423.4,412.528Zm-175.969-.371C224.5,423.4,208.2,406.493,195.564,384.005c24.963-1.866,48.1,1.953,52.009,26.655C247.513,411.188,247.466,411.685,247.426,412.157Zm-176,0C48.5,423.4,32.2,406.493,19.564,384.005c24.959-1.866,48.1,1.951,52.009,26.655C71.513,411.188,71.466,411.685,71.426,412.157ZM139.7,384.005c-12.638,22.5-28.986,39.375-51.862,28.151-.039-.472-.087-.968-.146-1.5C91.6,385.949,114.745,382.143,139.7,384.005ZM48.272,496c8.228-31.847,53.728-31.922,61.975,0ZM315.7,384.005c-12.654,22.528-29,39.371-51.862,28.151-.039-.472-.087-.968-.146-1.5C267.6,385.95,290.743,382.143,315.7,384.005ZM224.272,496c8.228-31.847,53.728-31.922,61.975,0Zm176,0c8.228-31.847,53.728-31.922,61.975,0Z"/><circle cx="88" cy="232" r="8"/><circle cx="264" cy="184" r="8"/><circle cx="224" cy="16" r="8"/><circle cx="432" cy="184" r="8"/><circle cx="88" cy="184" r="8"/><circle cx="104" cy="280" r="8"/><circle cx="88" cy="328" r="8"/><circle cx="72" cy="280" r="8"/><circle cx="56" cy="328" r="8"/><circle cx="120" cy="328" r="8"/><path d="M264,96h24a8,8,0,0,0,0-16H272V48a8,8,0,0,0-16,0V88A8,8,0,0,0,264,96Z"/><path d="M504,88H343.6a80.018,80.018,0,0,0,0-16H504a8,8,0,0,0,0-16H340.317A80.14,80.14,0,0,0,264,0a8,8,0,0,0,0,16,64,64,0,0,1,0,128c-51.506,0-81.256-57.684-53.228-99.55a8,8,0,1,0-13.3-8.9,79.578,79.578,0,0,0-9.8,20.45H8A8,8,0,0,0,8,72H184.407a79.42,79.42,0,0,0-.006,16H8a8,8,0,0,0,0,16H64v48a8,8,0,0,0,8,8h32a8,8,0,0,0,8-8V104h75.683a80,80,0,0,0,152.634,0H408v48a8,8,0,0,0,8,8h32a8,8,0,0,0,8-8V104h48a8,8,0,0,0,0-16ZM96,144H80V104H96Zm344,0H424V104h16Z"/></g></g></svg>
